<mxfile host="app.diagrams.net" agent="Mozilla/5.0 (Windows NT 10.0; Win64; x64; rv:133.0) Gecko/20100101 Firefox/133.0" version="26.0.4">
  <diagram name="Page-1" id="4Q_3Aa5NBEJG-y1glvs3">
    <mxGraphModel dx="2074" dy="1078" grid="1" gridSize="10" guides="1" tooltips="1" connect="1" arrows="1" fold="1" page="1" pageScale="1" pageWidth="850" pageHeight="1100" math="0" shadow="0">
      <root>
        <mxCell id="0" />
        <mxCell id="1" parent="0" />
        <mxCell id="B08LlKFRKd5oIJiM5cSy-2" value="Customer" style="shape=table;startSize=30;container=1;collapsible=0;childLayout=tableLayout;strokeColor=#432D57;fontSize=14;fontStyle=1;fillColor=#76608a;fontColor=#ffffff;" vertex="1" parent="1">
          <mxGeometry x="150" y="120" width="260" height="230" as="geometry" />
        </mxCell>
        <mxCell id="B08LlKFRKd5oIJiM5cSy-3" value="" style="shape=tableRow;horizontal=0;startSize=0;swimlaneHead=0;swimlaneBody=0;strokeColor=inherit;top=0;left=0;bottom=0;right=0;collapsible=0;dropTarget=0;fillColor=none;points=[[0,0.5],[1,0.5]];portConstraint=eastwest;fontSize=16;" vertex="1" parent="B08LlKFRKd5oIJiM5cSy-2">
          <mxGeometry y="30" width="260" height="40" as="geometry" />
        </mxCell>
        <mxCell id="B08LlKFRKd5oIJiM5cSy-4" value="PK" style="shape=partialRectangle;html=1;whiteSpace=wrap;connectable=0;strokeColor=inherit;overflow=hidden;fillColor=none;top=0;left=0;bottom=0;right=0;pointerEvents=1;fontSize=14;fontStyle=1" vertex="1" parent="B08LlKFRKd5oIJiM5cSy-3">
          <mxGeometry width="50" height="40" as="geometry">
            <mxRectangle width="50" height="40" as="alternateBounds" />
          </mxGeometry>
        </mxCell>
        <mxCell id="B08LlKFRKd5oIJiM5cSy-5" value="CustomerId" style="shape=partialRectangle;html=1;whiteSpace=wrap;connectable=0;strokeColor=inherit;overflow=hidden;fillColor=none;top=0;left=0;bottom=0;right=0;pointerEvents=1;fontSize=14;" vertex="1" parent="B08LlKFRKd5oIJiM5cSy-3">
          <mxGeometry x="50" width="124" height="40" as="geometry">
            <mxRectangle width="124" height="40" as="alternateBounds" />
          </mxGeometry>
        </mxCell>
        <mxCell id="B08LlKFRKd5oIJiM5cSy-6" value="int" style="shape=partialRectangle;html=1;whiteSpace=wrap;connectable=0;strokeColor=inherit;overflow=hidden;fillColor=none;top=0;left=0;bottom=0;right=0;pointerEvents=1;fontSize=14;" vertex="1" parent="B08LlKFRKd5oIJiM5cSy-3">
          <mxGeometry x="174" width="86" height="40" as="geometry">
            <mxRectangle width="86" height="40" as="alternateBounds" />
          </mxGeometry>
        </mxCell>
        <mxCell id="B08LlKFRKd5oIJiM5cSy-7" value="" style="shape=tableRow;horizontal=0;startSize=0;swimlaneHead=0;swimlaneBody=0;strokeColor=inherit;top=0;left=0;bottom=0;right=0;collapsible=0;dropTarget=0;fillColor=none;points=[[0,0.5],[1,0.5]];portConstraint=eastwest;fontSize=16;" vertex="1" parent="B08LlKFRKd5oIJiM5cSy-2">
          <mxGeometry y="70" width="260" height="40" as="geometry" />
        </mxCell>
        <mxCell id="B08LlKFRKd5oIJiM5cSy-8" value="" style="shape=partialRectangle;html=1;whiteSpace=wrap;connectable=0;strokeColor=inherit;overflow=hidden;fillColor=none;top=0;left=0;bottom=0;right=0;pointerEvents=1;fontSize=16;" vertex="1" parent="B08LlKFRKd5oIJiM5cSy-7">
          <mxGeometry width="50" height="40" as="geometry">
            <mxRectangle width="50" height="40" as="alternateBounds" />
          </mxGeometry>
        </mxCell>
        <mxCell id="B08LlKFRKd5oIJiM5cSy-9" value="Name" style="shape=partialRectangle;html=1;whiteSpace=wrap;connectable=0;strokeColor=inherit;overflow=hidden;fillColor=none;top=0;left=0;bottom=0;right=0;pointerEvents=1;fontSize=14;" vertex="1" parent="B08LlKFRKd5oIJiM5cSy-7">
          <mxGeometry x="50" width="124" height="40" as="geometry">
            <mxRectangle width="124" height="40" as="alternateBounds" />
          </mxGeometry>
        </mxCell>
        <mxCell id="B08LlKFRKd5oIJiM5cSy-10" value="varchar" style="shape=partialRectangle;html=1;whiteSpace=wrap;connectable=0;strokeColor=inherit;overflow=hidden;fillColor=none;top=0;left=0;bottom=0;right=0;pointerEvents=1;fontSize=14;" vertex="1" parent="B08LlKFRKd5oIJiM5cSy-7">
          <mxGeometry x="174" width="86" height="40" as="geometry">
            <mxRectangle width="86" height="40" as="alternateBounds" />
          </mxGeometry>
        </mxCell>
        <mxCell id="B08LlKFRKd5oIJiM5cSy-11" value="" style="shape=tableRow;horizontal=0;startSize=0;swimlaneHead=0;swimlaneBody=0;strokeColor=inherit;top=0;left=0;bottom=0;right=0;collapsible=0;dropTarget=0;fillColor=none;points=[[0,0.5],[1,0.5]];portConstraint=eastwest;fontSize=16;" vertex="1" parent="B08LlKFRKd5oIJiM5cSy-2">
          <mxGeometry y="110" width="260" height="40" as="geometry" />
        </mxCell>
        <mxCell id="B08LlKFRKd5oIJiM5cSy-12" value="" style="shape=partialRectangle;html=1;whiteSpace=wrap;connectable=0;strokeColor=inherit;overflow=hidden;fillColor=none;top=0;left=0;bottom=0;right=0;pointerEvents=1;fontSize=16;" vertex="1" parent="B08LlKFRKd5oIJiM5cSy-11">
          <mxGeometry width="50" height="40" as="geometry">
            <mxRectangle width="50" height="40" as="alternateBounds" />
          </mxGeometry>
        </mxCell>
        <mxCell id="B08LlKFRKd5oIJiM5cSy-13" value="Email" style="shape=partialRectangle;html=1;whiteSpace=wrap;connectable=0;strokeColor=inherit;overflow=hidden;fillColor=none;top=0;left=0;bottom=0;right=0;pointerEvents=1;fontSize=14;" vertex="1" parent="B08LlKFRKd5oIJiM5cSy-11">
          <mxGeometry x="50" width="124" height="40" as="geometry">
            <mxRectangle width="124" height="40" as="alternateBounds" />
          </mxGeometry>
        </mxCell>
        <mxCell id="B08LlKFRKd5oIJiM5cSy-14" value="varchar" style="shape=partialRectangle;html=1;whiteSpace=wrap;connectable=0;strokeColor=inherit;overflow=hidden;fillColor=none;top=0;left=0;bottom=0;right=0;pointerEvents=1;fontSize=14;" vertex="1" parent="B08LlKFRKd5oIJiM5cSy-11">
          <mxGeometry x="174" width="86" height="40" as="geometry">
            <mxRectangle width="86" height="40" as="alternateBounds" />
          </mxGeometry>
        </mxCell>
        <mxCell id="B08LlKFRKd5oIJiM5cSy-65" style="shape=tableRow;horizontal=0;startSize=0;swimlaneHead=0;swimlaneBody=0;strokeColor=inherit;top=0;left=0;bottom=0;right=0;collapsible=0;dropTarget=0;fillColor=none;points=[[0,0.5],[1,0.5]];portConstraint=eastwest;fontSize=16;" vertex="1" parent="B08LlKFRKd5oIJiM5cSy-2">
          <mxGeometry y="150" width="260" height="40" as="geometry" />
        </mxCell>
        <mxCell id="B08LlKFRKd5oIJiM5cSy-66" style="shape=partialRectangle;html=1;whiteSpace=wrap;connectable=0;strokeColor=inherit;overflow=hidden;fillColor=none;top=0;left=0;bottom=0;right=0;pointerEvents=1;fontSize=16;" vertex="1" parent="B08LlKFRKd5oIJiM5cSy-65">
          <mxGeometry width="50" height="40" as="geometry">
            <mxRectangle width="50" height="40" as="alternateBounds" />
          </mxGeometry>
        </mxCell>
        <mxCell id="B08LlKFRKd5oIJiM5cSy-67" value="PhoneNumber" style="shape=partialRectangle;html=1;whiteSpace=wrap;connectable=0;strokeColor=inherit;overflow=hidden;fillColor=none;top=0;left=0;bottom=0;right=0;pointerEvents=1;fontSize=14;" vertex="1" parent="B08LlKFRKd5oIJiM5cSy-65">
          <mxGeometry x="50" width="124" height="40" as="geometry">
            <mxRectangle width="124" height="40" as="alternateBounds" />
          </mxGeometry>
        </mxCell>
        <mxCell id="B08LlKFRKd5oIJiM5cSy-68" value="int" style="shape=partialRectangle;html=1;whiteSpace=wrap;connectable=0;strokeColor=inherit;overflow=hidden;fillColor=none;top=0;left=0;bottom=0;right=0;pointerEvents=1;fontSize=14;" vertex="1" parent="B08LlKFRKd5oIJiM5cSy-65">
          <mxGeometry x="174" width="86" height="40" as="geometry">
            <mxRectangle width="86" height="40" as="alternateBounds" />
          </mxGeometry>
        </mxCell>
        <mxCell id="B08LlKFRKd5oIJiM5cSy-91" style="shape=tableRow;horizontal=0;startSize=0;swimlaneHead=0;swimlaneBody=0;strokeColor=inherit;top=0;left=0;bottom=0;right=0;collapsible=0;dropTarget=0;fillColor=none;points=[[0,0.5],[1,0.5]];portConstraint=eastwest;fontSize=16;" vertex="1" parent="B08LlKFRKd5oIJiM5cSy-2">
          <mxGeometry y="190" width="260" height="40" as="geometry" />
        </mxCell>
        <mxCell id="B08LlKFRKd5oIJiM5cSy-92" style="shape=partialRectangle;html=1;whiteSpace=wrap;connectable=0;strokeColor=inherit;overflow=hidden;fillColor=none;top=0;left=0;bottom=0;right=0;pointerEvents=1;fontSize=16;" vertex="1" parent="B08LlKFRKd5oIJiM5cSy-91">
          <mxGeometry width="50" height="40" as="geometry">
            <mxRectangle width="50" height="40" as="alternateBounds" />
          </mxGeometry>
        </mxCell>
        <mxCell id="B08LlKFRKd5oIJiM5cSy-93" value="Adress" style="shape=partialRectangle;html=1;whiteSpace=wrap;connectable=0;strokeColor=inherit;overflow=hidden;fillColor=none;top=0;left=0;bottom=0;right=0;pointerEvents=1;fontSize=14;" vertex="1" parent="B08LlKFRKd5oIJiM5cSy-91">
          <mxGeometry x="50" width="124" height="40" as="geometry">
            <mxRectangle width="124" height="40" as="alternateBounds" />
          </mxGeometry>
        </mxCell>
        <mxCell id="B08LlKFRKd5oIJiM5cSy-94" value="varchar" style="shape=partialRectangle;html=1;whiteSpace=wrap;connectable=0;strokeColor=inherit;overflow=hidden;fillColor=none;top=0;left=0;bottom=0;right=0;pointerEvents=1;fontSize=14;" vertex="1" parent="B08LlKFRKd5oIJiM5cSy-91">
          <mxGeometry x="174" width="86" height="40" as="geometry">
            <mxRectangle width="86" height="40" as="alternateBounds" />
          </mxGeometry>
        </mxCell>
        <mxCell id="B08LlKFRKd5oIJiM5cSy-15" value="Account" style="shape=table;startSize=30;container=1;collapsible=0;childLayout=tableLayout;strokeColor=#314354;fontSize=14;fontStyle=1;fillColor=#647687;fontColor=#ffffff;" vertex="1" parent="1">
          <mxGeometry x="470" y="330" width="260" height="190" as="geometry" />
        </mxCell>
        <mxCell id="B08LlKFRKd5oIJiM5cSy-16" value="" style="shape=tableRow;horizontal=0;startSize=0;swimlaneHead=0;swimlaneBody=0;strokeColor=inherit;top=0;left=0;bottom=0;right=0;collapsible=0;dropTarget=0;fillColor=none;points=[[0,0.5],[1,0.5]];portConstraint=eastwest;fontSize=16;" vertex="1" parent="B08LlKFRKd5oIJiM5cSy-15">
          <mxGeometry y="30" width="260" height="40" as="geometry" />
        </mxCell>
        <mxCell id="B08LlKFRKd5oIJiM5cSy-17" value="PK" style="shape=partialRectangle;html=1;whiteSpace=wrap;connectable=0;strokeColor=inherit;overflow=hidden;fillColor=none;top=0;left=0;bottom=0;right=0;pointerEvents=1;fontSize=14;fontStyle=1" vertex="1" parent="B08LlKFRKd5oIJiM5cSy-16">
          <mxGeometry width="50" height="40" as="geometry">
            <mxRectangle width="50" height="40" as="alternateBounds" />
          </mxGeometry>
        </mxCell>
        <mxCell id="B08LlKFRKd5oIJiM5cSy-18" value="AccountNumber" style="shape=partialRectangle;html=1;whiteSpace=wrap;connectable=0;strokeColor=inherit;overflow=hidden;fillColor=none;top=0;left=0;bottom=0;right=0;pointerEvents=1;fontSize=14;" vertex="1" parent="B08LlKFRKd5oIJiM5cSy-16">
          <mxGeometry x="50" width="124" height="40" as="geometry">
            <mxRectangle width="124" height="40" as="alternateBounds" />
          </mxGeometry>
        </mxCell>
        <mxCell id="B08LlKFRKd5oIJiM5cSy-19" value="int" style="shape=partialRectangle;html=1;whiteSpace=wrap;connectable=0;strokeColor=inherit;overflow=hidden;fillColor=none;top=0;left=0;bottom=0;right=0;pointerEvents=1;fontSize=14;" vertex="1" parent="B08LlKFRKd5oIJiM5cSy-16">
          <mxGeometry x="174" width="86" height="40" as="geometry">
            <mxRectangle width="86" height="40" as="alternateBounds" />
          </mxGeometry>
        </mxCell>
        <mxCell id="B08LlKFRKd5oIJiM5cSy-20" value="" style="shape=tableRow;horizontal=0;startSize=0;swimlaneHead=0;swimlaneBody=0;strokeColor=inherit;top=0;left=0;bottom=0;right=0;collapsible=0;dropTarget=0;fillColor=none;points=[[0,0.5],[1,0.5]];portConstraint=eastwest;fontSize=16;" vertex="1" parent="B08LlKFRKd5oIJiM5cSy-15">
          <mxGeometry y="70" width="260" height="40" as="geometry" />
        </mxCell>
        <mxCell id="B08LlKFRKd5oIJiM5cSy-21" value="" style="shape=partialRectangle;html=1;whiteSpace=wrap;connectable=0;strokeColor=inherit;overflow=hidden;fillColor=none;top=0;left=0;bottom=0;right=0;pointerEvents=1;fontSize=16;" vertex="1" parent="B08LlKFRKd5oIJiM5cSy-20">
          <mxGeometry width="50" height="40" as="geometry">
            <mxRectangle width="50" height="40" as="alternateBounds" />
          </mxGeometry>
        </mxCell>
        <mxCell id="B08LlKFRKd5oIJiM5cSy-22" value="Balance" style="shape=partialRectangle;html=1;whiteSpace=wrap;connectable=0;strokeColor=inherit;overflow=hidden;fillColor=none;top=0;left=0;bottom=0;right=0;pointerEvents=1;fontSize=14;" vertex="1" parent="B08LlKFRKd5oIJiM5cSy-20">
          <mxGeometry x="50" width="124" height="40" as="geometry">
            <mxRectangle width="124" height="40" as="alternateBounds" />
          </mxGeometry>
        </mxCell>
        <mxCell id="B08LlKFRKd5oIJiM5cSy-23" value="decimal" style="shape=partialRectangle;html=1;whiteSpace=wrap;connectable=0;strokeColor=inherit;overflow=hidden;fillColor=none;top=0;left=0;bottom=0;right=0;pointerEvents=1;fontSize=14;" vertex="1" parent="B08LlKFRKd5oIJiM5cSy-20">
          <mxGeometry x="174" width="86" height="40" as="geometry">
            <mxRectangle width="86" height="40" as="alternateBounds" />
          </mxGeometry>
        </mxCell>
        <mxCell id="B08LlKFRKd5oIJiM5cSy-24" value="" style="shape=tableRow;horizontal=0;startSize=0;swimlaneHead=0;swimlaneBody=0;strokeColor=inherit;top=0;left=0;bottom=0;right=0;collapsible=0;dropTarget=0;fillColor=none;points=[[0,0.5],[1,0.5]];portConstraint=eastwest;fontSize=16;" vertex="1" parent="B08LlKFRKd5oIJiM5cSy-15">
          <mxGeometry y="110" width="260" height="40" as="geometry" />
        </mxCell>
        <mxCell id="B08LlKFRKd5oIJiM5cSy-25" value="" style="shape=partialRectangle;html=1;whiteSpace=wrap;connectable=0;strokeColor=inherit;overflow=hidden;fillColor=none;top=0;left=0;bottom=0;right=0;pointerEvents=1;fontSize=16;" vertex="1" parent="B08LlKFRKd5oIJiM5cSy-24">
          <mxGeometry width="50" height="40" as="geometry">
            <mxRectangle width="50" height="40" as="alternateBounds" />
          </mxGeometry>
        </mxCell>
        <mxCell id="B08LlKFRKd5oIJiM5cSy-26" value="AccountType" style="shape=partialRectangle;html=1;whiteSpace=wrap;connectable=0;strokeColor=inherit;overflow=hidden;fillColor=none;top=0;left=0;bottom=0;right=0;pointerEvents=1;fontSize=14;" vertex="1" parent="B08LlKFRKd5oIJiM5cSy-24">
          <mxGeometry x="50" width="124" height="40" as="geometry">
            <mxRectangle width="124" height="40" as="alternateBounds" />
          </mxGeometry>
        </mxCell>
        <mxCell id="B08LlKFRKd5oIJiM5cSy-27" value="varchar" style="shape=partialRectangle;html=1;whiteSpace=wrap;connectable=0;strokeColor=inherit;overflow=hidden;fillColor=none;top=0;left=0;bottom=0;right=0;pointerEvents=1;fontSize=14;" vertex="1" parent="B08LlKFRKd5oIJiM5cSy-24">
          <mxGeometry x="174" width="86" height="40" as="geometry">
            <mxRectangle width="86" height="40" as="alternateBounds" />
          </mxGeometry>
        </mxCell>
        <mxCell id="B08LlKFRKd5oIJiM5cSy-28" style="shape=tableRow;horizontal=0;startSize=0;swimlaneHead=0;swimlaneBody=0;strokeColor=inherit;top=0;left=0;bottom=0;right=0;collapsible=0;dropTarget=0;fillColor=none;points=[[0,0.5],[1,0.5]];portConstraint=eastwest;fontSize=16;" vertex="1" parent="B08LlKFRKd5oIJiM5cSy-15">
          <mxGeometry y="150" width="260" height="40" as="geometry" />
        </mxCell>
        <mxCell id="B08LlKFRKd5oIJiM5cSy-29" value="FK" style="shape=partialRectangle;html=1;whiteSpace=wrap;connectable=0;strokeColor=inherit;overflow=hidden;fillColor=none;top=0;left=0;bottom=0;right=0;pointerEvents=1;fontSize=14;fontStyle=1" vertex="1" parent="B08LlKFRKd5oIJiM5cSy-28">
          <mxGeometry width="50" height="40" as="geometry">
            <mxRectangle width="50" height="40" as="alternateBounds" />
          </mxGeometry>
        </mxCell>
        <mxCell id="B08LlKFRKd5oIJiM5cSy-30" value="Owner" style="shape=partialRectangle;html=1;whiteSpace=wrap;connectable=0;strokeColor=inherit;overflow=hidden;fillColor=none;top=0;left=0;bottom=0;right=0;pointerEvents=1;fontSize=14;" vertex="1" parent="B08LlKFRKd5oIJiM5cSy-28">
          <mxGeometry x="50" width="124" height="40" as="geometry">
            <mxRectangle width="124" height="40" as="alternateBounds" />
          </mxGeometry>
        </mxCell>
        <mxCell id="B08LlKFRKd5oIJiM5cSy-31" value="varchar" style="shape=partialRectangle;html=1;whiteSpace=wrap;connectable=0;strokeColor=inherit;overflow=hidden;fillColor=none;top=0;left=0;bottom=0;right=0;pointerEvents=1;fontSize=14;" vertex="1" parent="B08LlKFRKd5oIJiM5cSy-28">
          <mxGeometry x="174" width="86" height="40" as="geometry">
            <mxRectangle width="86" height="40" as="alternateBounds" />
          </mxGeometry>
        </mxCell>
        <mxCell id="B08LlKFRKd5oIJiM5cSy-53" value="" style="endArrow=ERmany;startArrow=ERone;endFill=0;startFill=0;entryX=0;entryY=0.5;entryDx=0;entryDy=0;edgeStyle=elbowEdgeStyle;exitX=0;exitY=0.5;exitDx=0;exitDy=0;" edge="1" parent="1" source="B08LlKFRKd5oIJiM5cSy-7" target="B08LlKFRKd5oIJiM5cSy-28">
          <mxGeometry width="100" height="100" relative="1" as="geometry">
            <mxPoint x="70" y="195" as="sourcePoint" />
            <mxPoint x="340" y="505" as="targetPoint" />
            <Array as="points">
              <mxPoint x="110" y="425" />
            </Array>
          </mxGeometry>
        </mxCell>
        <mxCell id="B08LlKFRKd5oIJiM5cSy-54" value="Simple Bank application ER diagram" style="shape=partialRectangle;html=1;whiteSpace=wrap;connectable=0;strokeColor=inherit;overflow=hidden;fillColor=none;top=0;left=0;bottom=0;right=0;pointerEvents=1;fontSize=21;fontStyle=1" vertex="1" parent="1">
          <mxGeometry x="440" y="40" width="340" height="90" as="geometry">
            <mxRectangle width="124" height="40" as="alternateBounds" />
          </mxGeometry>
        </mxCell>
        <mxCell id="B08LlKFRKd5oIJiM5cSy-95" value="Transaction" style="shape=table;startSize=30;container=1;collapsible=0;childLayout=tableLayout;strokeColor=#3A5431;fontSize=14;fontStyle=1;fillColor=#6d8764;fontColor=#ffffff;" vertex="1" parent="1">
          <mxGeometry x="320" y="590" width="260" height="190" as="geometry" />
        </mxCell>
        <mxCell id="B08LlKFRKd5oIJiM5cSy-96" value="" style="shape=tableRow;horizontal=0;startSize=0;swimlaneHead=0;swimlaneBody=0;strokeColor=inherit;top=0;left=0;bottom=0;right=0;collapsible=0;dropTarget=0;fillColor=none;points=[[0,0.5],[1,0.5]];portConstraint=eastwest;fontSize=16;" vertex="1" parent="B08LlKFRKd5oIJiM5cSy-95">
          <mxGeometry y="30" width="260" height="40" as="geometry" />
        </mxCell>
        <mxCell id="B08LlKFRKd5oIJiM5cSy-97" value="PK" style="shape=partialRectangle;html=1;whiteSpace=wrap;connectable=0;strokeColor=inherit;overflow=hidden;fillColor=none;top=0;left=0;bottom=0;right=0;pointerEvents=1;fontSize=14;fontStyle=1" vertex="1" parent="B08LlKFRKd5oIJiM5cSy-96">
          <mxGeometry width="50" height="40" as="geometry">
            <mxRectangle width="50" height="40" as="alternateBounds" />
          </mxGeometry>
        </mxCell>
        <mxCell id="B08LlKFRKd5oIJiM5cSy-98" value="TransactionId" style="shape=partialRectangle;html=1;whiteSpace=wrap;connectable=0;strokeColor=inherit;overflow=hidden;fillColor=none;top=0;left=0;bottom=0;right=0;pointerEvents=1;fontSize=14;" vertex="1" parent="B08LlKFRKd5oIJiM5cSy-96">
          <mxGeometry x="50" width="124" height="40" as="geometry">
            <mxRectangle width="124" height="40" as="alternateBounds" />
          </mxGeometry>
        </mxCell>
        <mxCell id="B08LlKFRKd5oIJiM5cSy-99" value="int" style="shape=partialRectangle;html=1;whiteSpace=wrap;connectable=0;strokeColor=inherit;overflow=hidden;fillColor=none;top=0;left=0;bottom=0;right=0;pointerEvents=1;fontSize=14;" vertex="1" parent="B08LlKFRKd5oIJiM5cSy-96">
          <mxGeometry x="174" width="86" height="40" as="geometry">
            <mxRectangle width="86" height="40" as="alternateBounds" />
          </mxGeometry>
        </mxCell>
        <mxCell id="B08LlKFRKd5oIJiM5cSy-100" value="" style="shape=tableRow;horizontal=0;startSize=0;swimlaneHead=0;swimlaneBody=0;strokeColor=inherit;top=0;left=0;bottom=0;right=0;collapsible=0;dropTarget=0;fillColor=none;points=[[0,0.5],[1,0.5]];portConstraint=eastwest;fontSize=16;" vertex="1" parent="B08LlKFRKd5oIJiM5cSy-95">
          <mxGeometry y="70" width="260" height="40" as="geometry" />
        </mxCell>
        <mxCell id="B08LlKFRKd5oIJiM5cSy-101" value="" style="shape=partialRectangle;html=1;whiteSpace=wrap;connectable=0;strokeColor=inherit;overflow=hidden;fillColor=none;top=0;left=0;bottom=0;right=0;pointerEvents=1;fontSize=16;" vertex="1" parent="B08LlKFRKd5oIJiM5cSy-100">
          <mxGeometry width="50" height="40" as="geometry">
            <mxRectangle width="50" height="40" as="alternateBounds" />
          </mxGeometry>
        </mxCell>
        <mxCell id="B08LlKFRKd5oIJiM5cSy-102" value="Date" style="shape=partialRectangle;html=1;whiteSpace=wrap;connectable=0;strokeColor=inherit;overflow=hidden;fillColor=none;top=0;left=0;bottom=0;right=0;pointerEvents=1;fontSize=14;" vertex="1" parent="B08LlKFRKd5oIJiM5cSy-100">
          <mxGeometry x="50" width="124" height="40" as="geometry">
            <mxRectangle width="124" height="40" as="alternateBounds" />
          </mxGeometry>
        </mxCell>
        <mxCell id="B08LlKFRKd5oIJiM5cSy-103" value="date" style="shape=partialRectangle;html=1;whiteSpace=wrap;connectable=0;strokeColor=inherit;overflow=hidden;fillColor=none;top=0;left=0;bottom=0;right=0;pointerEvents=1;fontSize=14;" vertex="1" parent="B08LlKFRKd5oIJiM5cSy-100">
          <mxGeometry x="174" width="86" height="40" as="geometry">
            <mxRectangle width="86" height="40" as="alternateBounds" />
          </mxGeometry>
        </mxCell>
        <mxCell id="B08LlKFRKd5oIJiM5cSy-104" value="" style="shape=tableRow;horizontal=0;startSize=0;swimlaneHead=0;swimlaneBody=0;strokeColor=inherit;top=0;left=0;bottom=0;right=0;collapsible=0;dropTarget=0;fillColor=none;points=[[0,0.5],[1,0.5]];portConstraint=eastwest;fontSize=16;" vertex="1" parent="B08LlKFRKd5oIJiM5cSy-95">
          <mxGeometry y="110" width="260" height="40" as="geometry" />
        </mxCell>
        <mxCell id="B08LlKFRKd5oIJiM5cSy-105" value="" style="shape=partialRectangle;html=1;whiteSpace=wrap;connectable=0;strokeColor=inherit;overflow=hidden;fillColor=none;top=0;left=0;bottom=0;right=0;pointerEvents=1;fontSize=16;" vertex="1" parent="B08LlKFRKd5oIJiM5cSy-104">
          <mxGeometry width="50" height="40" as="geometry">
            <mxRectangle width="50" height="40" as="alternateBounds" />
          </mxGeometry>
        </mxCell>
        <mxCell id="B08LlKFRKd5oIJiM5cSy-106" value="Amount" style="shape=partialRectangle;html=1;whiteSpace=wrap;connectable=0;strokeColor=inherit;overflow=hidden;fillColor=none;top=0;left=0;bottom=0;right=0;pointerEvents=1;fontSize=14;" vertex="1" parent="B08LlKFRKd5oIJiM5cSy-104">
          <mxGeometry x="50" width="124" height="40" as="geometry">
            <mxRectangle width="124" height="40" as="alternateBounds" />
          </mxGeometry>
        </mxCell>
        <mxCell id="B08LlKFRKd5oIJiM5cSy-107" value="decimal" style="shape=partialRectangle;html=1;whiteSpace=wrap;connectable=0;strokeColor=inherit;overflow=hidden;fillColor=none;top=0;left=0;bottom=0;right=0;pointerEvents=1;fontSize=14;" vertex="1" parent="B08LlKFRKd5oIJiM5cSy-104">
          <mxGeometry x="174" width="86" height="40" as="geometry">
            <mxRectangle width="86" height="40" as="alternateBounds" />
          </mxGeometry>
        </mxCell>
        <mxCell id="B08LlKFRKd5oIJiM5cSy-108" style="shape=tableRow;horizontal=0;startSize=0;swimlaneHead=0;swimlaneBody=0;strokeColor=inherit;top=0;left=0;bottom=0;right=0;collapsible=0;dropTarget=0;fillColor=none;points=[[0,0.5],[1,0.5]];portConstraint=eastwest;fontSize=16;" vertex="1" parent="B08LlKFRKd5oIJiM5cSy-95">
          <mxGeometry y="150" width="260" height="40" as="geometry" />
        </mxCell>
        <mxCell id="B08LlKFRKd5oIJiM5cSy-109" value="FK" style="shape=partialRectangle;html=1;whiteSpace=wrap;connectable=0;strokeColor=inherit;overflow=hidden;fillColor=none;top=0;left=0;bottom=0;right=0;pointerEvents=1;fontSize=14;fontStyle=1" vertex="1" parent="B08LlKFRKd5oIJiM5cSy-108">
          <mxGeometry width="50" height="40" as="geometry">
            <mxRectangle width="50" height="40" as="alternateBounds" />
          </mxGeometry>
        </mxCell>
        <mxCell id="B08LlKFRKd5oIJiM5cSy-110" value="AccountNumber" style="shape=partialRectangle;html=1;whiteSpace=wrap;connectable=0;strokeColor=inherit;overflow=hidden;fillColor=none;top=0;left=0;bottom=0;right=0;pointerEvents=1;fontSize=14;" vertex="1" parent="B08LlKFRKd5oIJiM5cSy-108">
          <mxGeometry x="50" width="124" height="40" as="geometry">
            <mxRectangle width="124" height="40" as="alternateBounds" />
          </mxGeometry>
        </mxCell>
        <mxCell id="B08LlKFRKd5oIJiM5cSy-111" value="int" style="shape=partialRectangle;html=1;whiteSpace=wrap;connectable=0;strokeColor=inherit;overflow=hidden;fillColor=none;top=0;left=0;bottom=0;right=0;pointerEvents=1;fontSize=14;" vertex="1" parent="B08LlKFRKd5oIJiM5cSy-108">
          <mxGeometry x="174" width="86" height="40" as="geometry">
            <mxRectangle width="86" height="40" as="alternateBounds" />
          </mxGeometry>
        </mxCell>
        <mxCell id="B08LlKFRKd5oIJiM5cSy-113" value="" style="edgeStyle=elbowEdgeStyle;orthogonalLoop=1;jettySize=auto;html=1;rounded=0;exitX=1;exitY=0.25;exitDx=0;exitDy=0;exitPerimeter=0;entryX=1.008;entryY=0;entryDx=0;entryDy=0;entryPerimeter=0;startArrow=ERmany;startFill=0;endArrow=baseDash;endFill=0;" edge="1" parent="1" source="B08LlKFRKd5oIJiM5cSy-108" target="B08LlKFRKd5oIJiM5cSy-28">
          <mxGeometry width="80" relative="1" as="geometry">
            <mxPoint x="650" y="754" as="sourcePoint" />
            <mxPoint x="740" y="480" as="targetPoint" />
            <Array as="points">
              <mxPoint x="800" y="610" />
            </Array>
          </mxGeometry>
        </mxCell>
      </root>
    </mxGraphModel>
  </diagram>
</mxfile>
